<svg width="237" height="345" viewBox="0 0 237 345" fill="none" xmlns="http://www.w3.org/2000/svg">
<rect x="1" y="1" width="235" height="342" rx="3" fill="#27232C" stroke="#3E3A44" stroke-width="2"/>
<path d="M92.4727 239.493H235.999V340C235.999 341.657 234.656 343 232.999 343H92.4727V239.493Z" fill="#27232C" stroke="#3E3A44" stroke-width="2"/>
<path d="M165.756 239.493H235.999V340C235.999 341.657 234.656 343 232.999 343H165.756V239.493Z" fill="#27232C" stroke="#3E3A44" stroke-width="2"/>
<rect x="-1" y="1" width="92" height="342" rx="3" transform="matrix(-1 0 0 1 92 0)" fill="#27232C" stroke="#3E3A44" stroke-width="2"/>
<path d="M154.838 82.9024L208.891 137.145H164.914V239.013L141.995 271.757H2.5L91.7916 169.794L1.5 82.9024L81.642 2H154.838L195.659 41.9381L154.838 82.9024Z" fill="#27232C"/>
<path d="M235.597 1.99998L195.659 41.9381M208.891 137.145L154.838 82.9024M208.891 137.145H236.48M208.891 137.145H164.914M154.838 82.9024L92.773 137.145H164.914M154.838 82.9024L195.659 41.9381M154.838 82.9024H1.5M1.5 82.9024L81.642 2H154.838L195.659 41.9381M1.5 82.9024L91.7916 169.794M164.914 239.013L91.7916 343.48M164.914 239.013L91.7916 169.794M164.914 239.013V137.145M234.657 341.5L164.914 271.757H2.5L91.7916 169.794" stroke="#3E3A44" stroke-width="2"/>
</svg>
