<svg width="510" height="353" viewBox="0 0 510 353" fill="none" xmlns="http://www.w3.org/2000/svg">
<rect x="1" y="1" width="214" height="154" rx="3" transform="matrix(-4.37114e-08 1 1 4.37114e-08 353 137)" stroke="#3E3A44" stroke-width="2"/>
<path d="M104 247L104 349C104 350.657 105.343 352 107 352L508 352L508 247L104 247Z" stroke="#3E3A44" stroke-width="2"/>
<rect x="1" y="139.611" width="137.612" height="507.435" rx="3" transform="rotate(-90 1 139.611)" stroke="#3E3A44" stroke-width="2"/>
<path d="M202.207 138.791L104 247M104 247L4.99999 247C2.79085 247 0.999989 245.21 0.99999 243L0.999995 122.258L104.683 3.22901M104 247L104.341 125.115L104.683 3.22901M104.683 3.22901L250.699 137.333M508.663 137.333L353.505 245.936L250.699 137.333M507.949 351.749L402.136 247.001M402.136 247.001L402.136 3.00051L250.699 137.333M402.136 247.001L297.387 351.749" stroke="#3E3A44" stroke-width="2"/>
</svg>
